HIERARCHY
ROOT Hips
{
	OFFSET 0.00000 0.00000 0.00000
	CHANNELS 6 Xposition Yposition Zposition Zrotation Yrotation Xrotation 
	JOINT LHipJoint
	{
		OFFSET 0 0 0
		CHANNELS 3 Zrotation Yrotation Xrotation
		JOINT LeftHip
		{
			OFFSET 1.28858 -1.83292 1.03970
			CHANNELS 3 Zrotation Yrotation Xrotation
			JOINT LeftKnee
			{
				OFFSET 2.47846 -6.80952 0.00000
				CHANNELS 3 Zrotation Yrotation Xrotation
				JOINT LeftAnkle
				{
					OFFSET 2.75274 -7.56311 0.00000
					CHANNELS 3 Zrotation Yrotation Xrotation
					JOINT LeftToe
					{
						OFFSET 0.12848 -0.35301 1.68223
						CHANNELS 3 Zrotation Yrotation Xrotation
						End Site
						{
							OFFSET 0.00000 -0.00000 0.87311
						}
					}
				}
			}
		}
	}
	JOINT RHipJoint
	{
		OFFSET 0 0 0
		CHANNELS 3 Zrotation Yrotation Xrotation
		JOINT RightHip
		{
			OFFSET -1.31183 -1.83292 1.03970
			CHANNELS 3 Zrotation Yrotation Xrotation
			JOINT RightKnee
			{
				OFFSET -2.44740 -6.72417 0.00000
				CHANNELS 3 Zrotation Yrotation Xrotation
				JOINT RightAnkle
				{
					OFFSET -2.67343 -7.34519 0.00000
					CHANNELS 3 Zrotation Yrotation Xrotation
					JOINT RightToe
					{
						OFFSET -0.16914 -0.46471 1.77626
						CHANNELS 3 Zrotation Yrotation Xrotation
						End Site
						{
							OFFSET -0.00000 -0.00000 0.92777
						}
					}
				}
			}
		}
	}
	JOINT lowerback
	{
		OFFSET 0 0 0
		CHANNELS 3 Zrotation Yrotation Xrotation
		JOINT Chest
		{
			OFFSET 0.01249 2.14252 0.03842
			CHANNELS 3 Zrotation Yrotation Xrotation
			JOINT Chest2
			{
				OFFSET -0.02957 2.14199 -0.03751
				CHANNELS 3 Zrotation Yrotation Xrotation
				JOINT lowerneck
				{
					OFFSET 0 0 0
					CHANNELS 3 Zrotation Yrotation Xrotation
					JOINT Neck
					{
						OFFSET -0.01678 1.65709 -0.05476
						CHANNELS 3 Zrotation Yrotation Xrotation
						JOINT Head
						{
							OFFSET 0.07912 1.58331 -0.11843
							CHANNELS 3 Zrotation Yrotation Xrotation
							End Site
							{
								OFFSET 0.03298 1.73940 -0.04271
							}
						}
					}
				}
				JOINT LeftCollar
				{
					OFFSET 0 0 0
					CHANNELS 3 Zrotation Yrotation Xrotation
					JOINT LeftShoulder
					{
						OFFSET 3.39556 1.16496 0.08673
CHANNELS 3 Zrotation Xrotation Yrotation
						JOINT LeftElbow
						{
OFFSET 0 -5.239100 -0.000000
CHANNELS 3 Zrotation Xrotation Yrotation
							JOINT LeftWrist
							{
OFFSET 0 -3.314670 0.000000
CHANNELS 3 Zrotation Xrotation Yrotation
								JOINT lhand
								{
									OFFSET 0 0 0
CHANNELS 3 Zrotation Xrotation Yrotation
									JOINT LFingers
									{
OFFSET 0 -0.965900 0.000000
CHANNELS 3 Zrotation Xrotation Yrotation
										End Site
										{
OFFSET 0 -0.778730 0.000000
										}
									}
								}
								JOINT LThumb
								{
OFFSET 0 0.000000 0.000000
CHANNELS 3 Zrotation Xrotation Yrotation
									End Site
									{
OFFSET 0 -0.790620 0.790620
									}
								}
							}
						}
					}
				}
				JOINT RightCollar
				{
					OFFSET 0 0 0
					CHANNELS 3 Zrotation Yrotation Xrotation
					JOINT RightShoulder
					{
						OFFSET -3.27193 1.31331 0.33940
CHANNELS 3 Zrotation Xrotation Yrotation
						JOINT RightElbow
						{
OFFSET 0 -5.302520 0.000000
CHANNELS 3 Zrotation Xrotation Yrotation
							JOINT RightWrist
							{
OFFSET 0 -3.678750 0.000000
CHANNELS 3 Zrotation Xrotation Yrotation
								JOINT rhand
								{
									OFFSET 0 0 0
CHANNELS 3 Zrotation Xrotation Yrotation
									JOINT RFingers
									{
OFFSET 0 -0.594810 0.000000
CHANNELS 3 Zrotation Xrotation Yrotation
										End Site
										{
OFFSET 0 -0.479550 0.000000
										}
									}
								}
								JOINT RThumb
								{
OFFSET 0 0.000000 0.000000
CHANNELS 3 Zrotation Xrotation Yrotation
									End Site
									{
OFFSET 0 -0.486870 0.486870
									}
								}
							}
						}
					}
				}
			}
		}
	}
}
MOTION
Frames: 6
Frame Time: 0.008333333333333333
10.647100 20.985900 10.688300 -1.938200 2.890300 3.752800 0.000000 0.000000 0.000000 -12.962700 -10.260600 -12.749200 2.782300 10.334100 30.065500 0.623500 -17.288100 -17.452500 0.123600 -2.266500 -6.242900 0.000000 0.000000 0.000000 20.441400 6.989300 -1.549800 -0.522800 -4.633700 12.866700 -2.194600 -4.839700 -30.037700 -0.194300 -2.838400 7.829200 0.340400 0.442700 -8.248100 -1.601100 0.655200 1.676300 -1.777900 0.367800 6.411600 -2.591900 -4.115600 1.000600 11.099700 -6.346400 8.764800 3.623300 -2.910500 2.862600 -0.000000 -0.000000 0.000000 6.034300 -3.897600 -40.039400 10.357500 -17.296800 1.579600 6.937100 -2.536200 11.530600 0.000000 0.000000 0.000000 -7.125000 0.000000 0.000000 -14.102100 18.552400 -9.163600 -0.000000 -0.000000 0.000000 0.264600 5.022500 29.440300 -14.766300 -23.819500 -3.130900 -1.757100 6.937200 46.663300 0.000000 0.000000 0.000000 7.125000 0.000000 -0.000000 55.409600 69.187600 -35.771000
10.647428 20.986228 10.686594 -1.960704 2.919890 3.755621 0.000000 0.000000 0.000000 -12.923597 -10.401726 -12.758648 2.793257 10.352602 30.126385 0.517082 -17.623167 -16.794241 0.055760 -0.177564 -0.492569 0.000000 0.000000 0.000000 20.461411 6.871597 -1.488849 -0.508563 -4.570912 12.688767 -2.177279 -4.869880 -29.944600 -0.187477 -2.788143 7.689452 0.395774 0.441913 -8.240489 -1.608448 0.648639 1.674594 -1.817790 0.366816 6.405958 -2.629560 -4.117896 0.980261 11.152647 -6.358013 8.810989 3.644557 -2.913715 2.883136 0.000000 0.000000 0.000000 6.047553 -3.893467 -40.047076 10.356122 -17.294701 1.579206 6.978893 -2.542236 11.507112 0.000000 0.000000 0.000000 -7.125000 0.000000 0.000000 -14.074807 18.573657 -9.137947 0.000000 0.000000 0.000000 0.281527 5.024862 29.476320 -14.762429 -23.814120 -3.129391 -1.778029 6.966724 46.699844 0.000000 0.000000 0.000000 7.125000 0.000000 0.000000 55.472388 69.214828 -35.850190
10.647101 20.986962 10.685325 -1.980086 2.948387 3.755726 0.000000 0.000000 0.000000 -12.884150 -10.545037 -12.752986 2.802091 10.367514 30.175377 0.508440 -17.690752 -16.759920 0.022104 0.304077 0.835665 0.000000 0.000000 0.000000 20.485106 6.800347 -1.435390 -0.498509 -4.526449 12.562752 -2.169105 -4.877427 -29.897236 -0.185274 -2.771977 7.644453 0.430076 0.439346 -8.233971 -1.610302 0.641672 1.676010 -1.840074 0.364739 6.403905 -2.673401 -4.124282 0.943720 11.213055 -6.377337 8.872288 3.668437 -2.919646 2.911851 0.000000 0.000000 0.000000 6.040920 -3.879218 -39.970150 10.364360 -17.307524 1.581654 6.958748 -2.456364 11.480190 0.000000 0.000000 0.000000 -7.125000 0.000000 0.000000 -14.090439 18.600690 -9.140016 0.000000 0.000000 0.000000 0.295145 5.033062 29.511964 -14.770484 -23.825411 -3.132658 -1.842540 6.997247 46.710134 0.000000 0.000000 0.000000 7.125000 0.000000 0.000000 55.440896 69.241900 -35.855549
10.646051 20.988143 10.684538 -1.996029 2.975680 3.752840 0.000000 0.000000 0.000000 -12.844325 -10.690755 -12.730678 2.808586 10.378470 30.211265 0.607510 -17.463678 -17.412930 0.026107 -0.984884 -2.707502 0.000000 0.000000 0.000000 20.512858 6.780271 -1.390185 -0.493063 -4.502174 12.493927 -2.171008 -4.860041 -29.900254 -0.188160 -2.793366 7.703829 0.441164 0.434819 -8.228657 -1.606103 0.634258 1.680865 -1.842960 0.361459 6.405808 -2.724051 -4.135173 0.889330 11.281682 -6.405155 8.950232 3.695206 -2.928569 2.949576 0.000000 0.000000 0.000000 6.012380 -3.853828 -39.800025 10.383190 -17.336785 1.587230 6.870373 -2.269246 11.449484 0.000000 0.000000 0.000000 -7.125000 0.000000 0.000000 -14.153358 18.634085 -9.172624 0.000000 0.000000 0.000000 0.305118 5.047693 29.547197 -14.791675 -23.855066 -3.141188 -1.955060 7.028871 46.691501 0.000000 0.000000 0.000000 7.125000 0.000000 0.000000 55.305544 69.268799 -35.779573
10.645001 20.987388 10.685437 -2.011910 2.977250 3.745707 0.000000 0.000000 0.000000 -12.826041 -10.600897 -12.760319 2.815206 10.389677 30.248027 0.624850 -17.364414 -17.498571 0.083368 -1.774096 -4.883977 0.000000 0.000000 0.000000 20.537989 6.786480 -1.334366 -0.486931 -4.474339 12.415176 -2.166355 -4.885861 -29.884104 -0.190485 -2.810509 7.751468 0.457497 0.438284 -8.210543 -1.600093 0.636335 1.653190 -1.845597 0.362549 6.366377 -2.757906 -4.133577 0.913860 11.303232 -6.409622 9.006010 3.707614 -2.930061 2.963950 0.000000 0.000000 0.000000 5.979407 -3.728599 -39.640577 10.435486 -17.417870 1.602860 6.767324 -2.077571 11.421339 0.000000 0.000000 0.000000 -7.125000 0.000000 0.000000 -14.226143 18.665483 -9.212599 0.000000 0.000000 0.000000 0.300543 5.147363 29.622514 -14.833846 -23.914067 -3.158271 -2.140132 7.027153 46.647955 0.000000 0.000000 0.000000 7.125000 0.000000 0.000000 55.054370 69.305877 -35.624552
10.644063 20.985498 10.686673 -2.060406 2.962984 3.736928 0.000000 0.000000 0.000000 -12.779319 -10.436808 -12.811531 2.820823 10.399185 30.279281 0.632905 -17.327679 -17.542683 0.144176 -2.422788 -6.676814 0.000000 0.000000 0.000000 20.597708 6.800504 -1.283140 -0.481857 -4.451344 12.350111 -2.164201 -4.894496 -29.875057 -0.195278 -2.845302 7.848264 0.522056 0.459516 -8.199912 -1.594973 0.657236 1.627565 -1.873772 0.374799 6.334747 -2.786504 -4.140742 0.965539 11.334618 -6.423167 9.025745 3.722658 -2.937684 2.963871 0.000000 0.000000 0.000000 5.983174 -3.614791 -39.624064 10.490408 -17.502990 1.619336 6.688520 -2.006405 11.399298 0.000000 0.000000 0.000000 -7.125000 0.000000 0.000000 -14.281843 18.690019 -9.243020 0.000000 0.000000 0.000000 0.318675 5.244735 29.632667 -14.874026 -23.970268 -3.174582 -2.227389 7.027668 46.618570 0.000000 0.000000 0.000000 7.125000 0.000000 0.000000 54.916512 69.318397 -35.530920
